<svg xmlns="http://www.w3.org/2000/svg" viewBox="0 0 1000 120.11"><path fill="#000" fill-rule="evenodd" d="M50.61,0.67 L66.8,0.67 L78.27,2.7 L93.79,9.45 L99.87,14.17 L103.24,18.22 L106.61,24.97 L106.61,33.06 L103.91,37.11 L95.14,41.16 L83.0,41.16 L76.25,39.14 L71.52,36.44 L66.13,30.36 L62.08,17.54 L56.01,11.47 L51.96,11.47 L47.91,14.17 L45.88,18.22 L45.88,26.32 L48.58,31.71 L58.7,40.49 L93.79,58.03 L103.91,64.78 L108.64,69.5 L112.69,76.25 L113.36,87.72 L110.66,94.47 L107.29,99.19 L99.19,106.61 L85.02,114.04 L72.87,117.41 L61.4,118.76 L51.96,118.76 L51.28,118.08 L37.79,117.41 L21.59,113.36 L8.77,106.61 L4.72,103.24 L1.35,98.52 L0.0,95.82 L0.0,85.7 L4.05,80.97 L8.77,78.27 L15.52,76.25 L26.99,75.57 L37.11,78.27 L43.86,83.67 L45.88,89.07 L45.21,95.14 L45.88,101.21 L47.23,103.91 L51.28,107.29 L53.31,107.96 L62.08,107.29 L68.15,102.56 L70.18,97.84 L70.18,93.12 L67.48,87.72 L63.43,83.67 L53.98,77.6 L32.39,68.15 L16.19,59.38 L6.07,49.93 L2.7,41.84 L2.7,31.71 L4.05,26.32 L8.1,19.57 L14.17,13.5 L26.99,6.07 L40.49,2.02 L49.93,1.35 Z M170.04,0.67 L184.21,0.67 L192.31,2.02 L203.1,5.4 L211.2,9.45 L219.3,14.84 L228.07,23.62 L234.82,33.74 L240.22,48.58 L240.89,65.45 L237.52,79.62 L232.79,89.07 L227.4,96.49 L215.25,107.29 L202.43,114.04 L188.26,118.08 L172.74,118.76 L159.92,116.73 L147.1,112.01 L132.93,102.56 L122.13,90.42 L116.73,80.3 L113.36,68.15 L113.36,50.61 L119.43,33.06 L124.83,24.97 L134.95,14.84 L141.7,10.12 L147.77,6.75 L158.57,2.7 L169.37,1.35 Z M259.11,0.67 L336.71,0.67 L344.13,2.7 L352.23,7.42 L357.62,12.82 L361.67,20.24 L363.02,11.47 L365.05,8.1 L367.75,5.4 L373.14,2.7 L378.54,1.35 L384.62,0.67 L471.66,0.67 L485.83,4.05 L491.23,8.77 L492.58,11.47 L493.25,20.92 L489.2,29.01 L483.13,33.06 L474.36,33.74 L471.66,32.39 L464.24,17.54 L456.14,11.47 L453.44,11.47 L450.74,14.17 L448.04,20.92 L446.02,31.04 L445.34,45.21 L444.67,45.88 L444.67,66.8 L448.04,90.42 L456.14,106.61 L455.47,110.66 L453.44,114.04 L441.97,118.08 L426.45,118.76 L425.78,118.08 L410.26,117.41 L404.18,115.38 L400.81,112.69 L399.46,109.99 L399.46,105.94 L406.88,91.09 L408.91,80.97 L409.58,66.13 L410.26,65.45 L410.26,45.88 L409.58,45.21 L408.91,30.36 L406.21,16.87 L402.16,11.47 L399.46,11.47 L396.76,12.82 L392.04,16.87 L386.64,26.32 L385.96,29.69 L384.62,31.71 L381.24,33.74 L374.49,33.74 L369.77,31.71 L365.05,27.67 L362.35,22.27 L361.67,26.32 L359.65,30.36 L350.2,35.09 L341.43,35.09 L334.68,32.39 L331.98,29.01 L329.28,21.59 L322.54,14.17 L316.46,11.47 L308.37,11.47 L304.32,13.5 L298.92,18.89 L294.2,27.67 L289.47,45.88 L288.12,59.38 L288.8,60.05 L301.62,60.05 L306.34,58.7 L309.72,56.68 L318.49,47.23 L321.86,47.91 L325.24,53.31 L327.26,63.43 L326.59,72.2 L323.21,81.65 L320.51,83.67 L317.81,83.0 L309.04,73.55 L302.97,70.85 L288.8,70.85 L288.12,71.52 L288.8,85.7 L290.82,93.12 L297.57,103.24 L298.25,109.31 L296.9,112.69 L293.52,115.38 L283.4,118.08 L257.09,118.08 L249.66,116.73 L244.94,114.71 L241.57,110.66 L241.57,105.26 L242.91,101.21 L248.31,93.79 L250.34,89.07 L252.36,74.9 L252.36,51.96 L249.66,31.71 L247.64,24.97 L244.26,20.24 L241.57,14.17 L241.57,8.77 L244.94,4.72 L247.64,3.37 L253.71,1.35 L258.43,1.35 Z M509.45,0.67 L536.44,1.35 L546.56,4.05 L550.61,6.75 L553.98,13.5 L553.98,18.89 L552.63,23.62 L552.63,33.06 L555.33,49.26 L558.03,58.7 L564.78,74.9 L569.5,82.32 L574.9,88.39 L576.25,87.72 L576.25,85.02 L577.6,82.32 L581.65,64.78 L582.32,49.93 L580.3,39.81 L576.25,28.34 L572.87,22.94 L566.13,16.19 L562.75,10.12 L562.75,6.75 L568.15,2.7 L580.3,0.67 L599.19,0.67 L605.26,1.35 L614.71,4.05 L620.11,8.1 L622.81,14.17 L620.78,27.67 L622.13,39.81 L625.51,54.66 L630.9,69.5 L635.63,78.95 L643.05,88.39 L644.4,87.72 L645.07,85.02 L645.07,79.62 L648.45,63.43 L653.17,49.26 L662.62,26.32 L663.29,16.87 L660.59,11.47 L660.59,7.42 L666.67,3.37 L678.81,0.67 L692.98,0.67 L701.08,2.7 L703.78,4.05 L706.48,7.42 L709.18,4.72 L718.62,1.35 L744.26,0.67 L755.74,2.7 L758.43,4.05 L763.16,8.77 L768.56,3.37 L781.38,0.67 L857.62,0.67 L865.72,2.7 L875.17,8.77 L878.54,12.15 L881.92,17.54 L883.27,22.27 L883.27,26.32 L881.92,29.01 L877.19,33.06 L871.12,35.09 L863.7,35.09 L857.62,33.06 L854.93,31.04 L850.2,20.24 L844.8,14.84 L838.06,11.47 L829.96,11.47 L825.91,13.5 L820.51,18.89 L815.79,27.67 L811.74,41.84 L809.72,59.38 L810.39,60.05 L825.91,59.38 L831.98,56.01 L838.06,48.58 L840.08,47.23 L842.11,47.23 L845.48,49.93 L848.85,62.75 L848.85,67.48 L846.83,77.6 L844.13,82.32 L842.11,83.67 L839.41,83.0 L830.63,73.55 L826.59,71.52 L823.89,70.85 L810.39,70.85 L809.72,71.52 L809.72,80.3 L811.74,91.77 L817.81,100.54 L819.84,107.29 L819.16,111.34 L817.81,113.36 L813.09,116.06 L808.37,117.41 L794.2,118.08 L793.52,118.76 L777.33,118.08 L771.26,116.73 L766.53,114.71 L763.83,112.01 L763.16,109.99 L759.78,114.04 L754.39,116.73 L747.64,118.08 L737.52,118.08 L736.84,118.76 L720.65,118.08 L713.9,116.73 L709.18,114.71 L705.8,109.99 L705.8,105.26 L707.15,101.21 L712.55,93.79 L715.25,86.37 L716.6,74.9 L716.6,49.93 L713.23,29.01 L711.2,23.62 L706.48,16.19 L705.13,8.77 L701.08,12.82 L695.68,16.19 L683.54,28.34 L674.09,41.84 L667.34,55.33 L663.29,66.8 L661.27,74.9 L659.24,91.09 L656.55,101.21 L653.85,107.29 L647.77,114.71 L641.7,118.08 L634.28,118.76 L624.16,117.41 L616.06,114.04 L612.01,111.34 L604.59,103.91 L594.47,87.72 L590.42,103.24 L587.04,109.31 L581.65,114.71 L576.25,117.41 L567.48,118.76 L553.31,116.73 L547.23,114.04 L542.51,110.66 L534.41,102.56 L529.01,94.47 L522.94,80.97 L518.22,66.8 L508.77,31.04 L506.07,25.64 L496.63,15.52 L493.93,10.8 L493.93,7.42 L496.63,4.05 L504.72,1.35 L508.77,1.35 Z M901.48,0.67 L974.36,0.67 L980.43,2.02 L986.5,4.72 L995.95,12.82 L999.33,18.22 L999.33,28.34 L995.28,32.39 L987.85,35.09 L980.43,35.09 L974.36,33.06 L971.66,30.36 L966.94,20.92 L961.54,15.52 L955.47,12.15 L946.02,11.47 L941.3,14.17 L936.57,20.24 L933.87,25.64 L931.17,33.74 L929.15,48.58 L929.82,49.26 L943.32,48.58 L947.37,46.56 L956.14,36.44 L959.51,36.44 L962.21,39.14 L964.91,47.23 L965.59,52.63 L964.91,61.4 L962.89,68.15 L961.54,70.85 L959.51,72.2 L955.47,71.52 L948.04,62.75 L941.97,60.05 L929.15,60.05 L928.48,65.45 L929.82,78.27 L933.2,92.44 L937.92,101.89 L943.99,107.29 L953.44,107.96 L960.86,104.59 L967.61,97.84 L972.33,88.39 L975.71,85.7 L980.43,84.35 L987.85,84.35 L992.58,85.7 L995.28,87.04 L999.33,91.09 L999.33,101.21 L996.63,105.94 L987.18,114.04 L979.76,117.41 L972.33,118.76 L970.99,118.08 L967.61,118.76 L898.11,118.08 L890.01,116.06 L884.62,112.01 L883.94,105.26 L885.96,99.87 L891.36,92.44 L893.39,85.02 L894.74,74.22 L894.74,51.28 L891.36,29.01 L889.34,23.62 L885.29,18.22 L883.94,14.17 L883.94,8.77 L885.29,6.07 L887.99,4.05 L896.09,1.35 L900.81,1.35 Z M172.74,12.82 L172.74,12.15 L165.32,12.82 L158.57,19.57 L155.87,25.64 L153.85,34.41 L153.17,49.26 L155.87,67.48 L161.27,83.67 L170.04,98.52 L175.44,103.91 L182.19,107.29 L186.91,107.29 L190.96,105.26 L194.33,101.89 L197.03,97.17 L200.4,84.35 L200.4,64.1 L197.03,47.23 L191.63,33.06 L183.54,20.24 L176.79,14.17 L173.41,12.82 Z M763.83,14.84 L763.83,14.17 L761.81,14.84 L755.06,28.34 L751.69,49.93 L751.69,76.25 L754.39,91.09 L761.81,102.56 L762.48,105.26 L763.83,104.59 L764.51,101.21 L771.26,91.09 L773.28,81.65 L773.28,72.87 L773.95,72.2 L773.28,44.53 L770.58,29.01 L763.83,15.52 Z"/></svg>